<?xml version="1.0" encoding="UTF-8"?>
<svg version="1.1" xmlns="http://www.w3.org/2000/svg" width="64" height="64">
<path d="M0 0 C5.47193383 3.8836588 10.59979777 9.69010187 11.96484375 16.39453125 C12.94645242 25.42753687 12.42891108 32.92100842 6.96484375 40.39453125 C2.2051644 45.71949318 -3.11750952 48.96454563 -10.23828125 49.74609375 C-19.43544074 50.12433191 -26.22192165 48.7596062 -33.1328125 42.4921875 C-39.57407385 35.60122823 -40.52117555 29.13883933 -40.3359375 19.8671875 C-39.59016425 11.25689635 -35.82994849 6.60375768 -29.44921875 1.0234375 C-21.21727194 -4.53112855 -8.71283537 -4.59168047 0 0 Z M-24.03515625 5.39453125 C-24.65390625 6.34328125 -25.27265625 7.29203125 -25.91015625 8.26953125 C-28.2473458 11.70657471 -30.6195514 13.11746135 -34.03515625 15.39453125 C-34.98747222 17.51572253 -34.98747222 17.51572253 -35.03515625 19.39453125 C-31.20168323 20.67235559 -28.94787866 20.35555079 -25.03515625 19.39453125 C-22.69884877 16.99594081 -22.69884877 16.99594081 -21.03515625 14.39453125 C-17.32319034 12.5385483 -13.07633011 12.80360488 -9.03515625 13.39453125 C-5.97265625 15.83203125 -5.97265625 15.83203125 -4.03515625 18.39453125 C-2.45243024 19.97725726 -0.65481622 19.74188872 1.52734375 19.95703125 C2.35363281 20.04082031 3.17992187 20.12460937 4.03125 20.2109375 C4.98837891 20.30181641 4.98837891 20.30181641 5.96484375 20.39453125 C6.29484375 19.73453125 6.62484375 19.07453125 6.96484375 18.39453125 C5.80972734 14.92918202 5.01976645 14.50501 2.08984375 12.51953125 C-1.26020438 10.12493357 -3.05521226 8.0417965 -5.03515625 4.39453125 C-8.22672073 3.33067642 -10.62013101 3.22775143 -13.97265625 3.20703125 C-15.01292969 3.19285156 -16.05320312 3.17867187 -17.125 3.1640625 C-20.04073934 3.3949734 -21.62688653 3.77639047 -24.03515625 5.39453125 Z M-19.03515625 20.39453125 C-19.36848958 23.39453125 -19.36848958 23.39453125 -19.03515625 26.39453125 C-17.15015354 28.71016212 -17.15015354 28.71016212 -14.03515625 28.64453125 C-10.92015896 28.71016212 -10.92015896 28.71016212 -9.03515625 26.39453125 C-8.70182292 23.39453125 -8.70182292 23.39453125 -9.03515625 20.39453125 C-10.92015896 18.07890038 -10.92015896 18.07890038 -14.03515625 18.14453125 C-17.15015354 18.07890038 -17.15015354 18.07890038 -19.03515625 20.39453125 Z M-33.03515625 29.39453125 C-33.03515625 32.75966631 -32.57458588 34.79946539 -30.29296875 37.31640625 C-26.08542892 41.05176694 -26.08542892 41.05176694 -21.03515625 43.39453125 C-20.37515625 42.73453125 -19.71515625 42.07453125 -19.03515625 41.39453125 C-19.10934309 36.79494694 -19.15620371 34.45992827 -22.09765625 30.89453125 C-26.04313241 28.87982002 -28.6426564 29.09673465 -33.03515625 29.39453125 Z M-8.03515625 33.39453125 C-8.73441937 36.12896314 -8.89282955 38.54799723 -9.03515625 41.39453125 C-7.55015625 42.38453125 -7.55015625 42.38453125 -6.03515625 43.39453125 C-1.37646439 40.5776478 1.80168738 37.86016377 4.96484375 33.39453125 C4.96484375 32.07453125 4.96484375 30.75453125 4.96484375 29.39453125 C-2.43170898 28.86617669 -2.43170898 28.86617669 -8.03515625 33.39453125 Z " fill="#FFFFFF" transform="translate(46.03515625,8.60546875)"/>
</svg>
