<svg width="42" height="14" viewBox="0 0 42 14" fill="none" xmlns="http://www.w3.org/2000/svg">
<path d="M42 12.0663C42 13.1342 41.1537 14 40.11 14H2.22616C1.1824 14 0.336151 13.1342 0.336151 12.0663L0.808653 11.5591C0.808653 11.3875 0.507669 11.1646 0.389071 11.022C-0.423633 10.0416 0.1566 8.61451 1.03215 8.61451C1.03215 8.61451 16.8024 7.24929 23.8658 0.486015C25.0074 -0.607519 24.7371 0.486015 24.9715 0.486015C26.2076 0.486015 28.3258 2.7485 32.9228 2.7485C37.5197 2.7485 40.11 0.486015 40.11 0.486015C41.1537 0.486015 42 1.35185 42 2.41976V10.8456L41.5275 11.2618L42 11.5596V12.0663Z" fill="white"/>
</svg>
