<svg width="30" height="30" viewBox="0 0 30 30" fill="none" xmlns="http://www.w3.org/2000/svg">
<g clip-path="url(#clip0_15_310)">
<path d="M15.1655 11.9355C16.5644 11.9355 17.6985 10.8015 17.6985 9.40258C17.6985 8.00367 16.5644 6.86963 15.1655 6.86963C13.7666 6.86963 12.6326 8.00367 12.6326 9.40258C12.6326 10.8015 13.7666 11.9355 15.1655 11.9355Z" fill="white"/>
<path d="M15 0C6.71581 0 0 6.71581 0 15C0 23.2842 6.71581 30 15 30C23.2842 30 30 23.2842 30 15C30 6.71581 23.2842 0 15 0ZM15.1655 4.25404C18.009 4.25404 20.3141 6.55915 20.3141 9.40268C20.3141 12.2462 18.009 14.5513 15.1655 14.5513C12.3219 14.5513 10.0168 12.2462 10.0168 9.40268C10.0168 6.55915 12.3219 4.25404 15.1655 4.25404ZM19.7423 17.519C18.6478 18.2216 17.1476 18.4875 16.1675 18.5885L16.9875 19.4083L20.0215 22.4422C20.4823 22.9034 20.4826 23.6507 20.0215 24.1119L19.8825 24.2509C19.4213 24.712 18.674 24.712 18.2128 24.2509C17.4417 23.4798 16.3302 22.3683 15.1789 21.2169L12.1449 24.2509C11.6838 24.7117 10.9364 24.712 10.4752 24.2509L10.3362 24.1119C9.87508 23.6507 9.87508 22.9034 10.3362 22.4422C11.1073 21.6711 12.2188 20.5596 13.3702 19.4083L14.1875 18.5909C13.2083 18.4921 11.692 18.2274 10.5881 17.5187C9.29591 16.6891 8.72343 16.1973 9.23021 15.1792C9.52101 14.5951 10.3259 14.1093 11.396 14.9525C12.8421 16.092 15.1652 16.092 15.1652 16.092C15.1652 16.092 17.4882 16.092 18.9343 14.9525C20.0045 14.1093 20.8093 14.5951 21.1001 15.1792C21.6069 16.1976 21.0344 16.6894 19.7423 17.519Z" fill="white"/>
</g>
<defs>
<clipPath id="clip0_15_310">
<rect width="30" height="30" fill="white"/>
</clipPath>
</defs>
</svg>
