<svg width="38" height="23" viewBox="0 0 38 23" fill="none" xmlns="http://www.w3.org/2000/svg">
<path d="M35.2555 0.111212C35.1226 -0.0230327 34.9232 -0.0230329 34.7902 0.0440896C31.1341 2.52762 27.478 6.018 24.0213 9.44125C22.4924 10.9179 20.8305 12.5289 19.3016 13.9385C16.4432 16.0864 13.4519 16.422 10.527 15.0124C10.4605 14.9453 10.3275 14.9453 10.2611 15.0124C9.26395 15.4152 8.33331 15.8179 7.33619 16.1535C5.07605 17.0261 2.74944 17.9658 0.422824 19.1069C0.356349 19.174 0.289875 19.174 0.289875 19.3083C0.0239761 19.9124 -0.0424986 20.5165 0.0239761 21.0534C0.0239761 21.1877 0.156925 21.3219 0.289875 21.3219C4.4113 22.3288 10.1281 23 14.6484 23C16.9085 23 19.8334 22.7986 20.9635 21.926C24.6196 18.0329 28.0098 15.2138 31.3335 13.2672C31.4665 13.2001 31.7324 13.133 32.0648 13.133C32.5301 13.133 33.3278 13.3344 33.3278 14.4754C33.3943 15.7508 33.3943 17.0261 33.3943 18.3685C33.3943 19.6439 33.4607 20.9192 33.4607 22.1945C33.4607 22.3959 33.5937 22.5301 33.7931 22.5301H36.6515C36.8509 22.5301 36.9839 22.3959 36.9839 22.1945C36.9839 22.0603 36.9174 21.9932 36.8509 21.926C33.9925 18.3014 37.1833 11.3207 37.7816 10.7166C37.8481 10.6495 37.8481 10.5823 37.8481 10.5152C38.3799 6.48785 37.5157 2.93036 35.2555 0.111212Z" fill="#FFFD29"/>
</svg>
