<?xml version="1.0" encoding="UTF-8"?>
<svg version="1.1" xmlns="http://www.w3.org/2000/svg" width="50" height="50">
<path d="M0 0 C2.91716039 1.53804311 5.80013526 3.1257171 8.67431641 4.74267578 C9.69654297 5.26603516 10.71876953 5.78939453 11.77197266 6.32861328 C18.86043535 10.34130779 18.86043535 10.34130779 20.09887695 14.6484375 C20.21166444 17.66058549 20.17984508 19.98078949 19.29931641 22.86767578 C16.621262 25.63522007 13.72621312 27.15941969 10.29931641 28.86767578 C9.51041016 29.36396484 8.72150391 29.86025391 7.90869141 30.37158203 C3.08604365 33.38163598 0.99166058 34.12940558 -4.70068359 32.86767578 C-8.65740843 31.20872715 -12.33908681 29.09481281 -16.07568359 26.99267578 C-17.09791016 26.46931641 -18.12013672 25.94595703 -19.17333984 25.40673828 C-26.26180254 21.39404378 -26.26180254 21.39404378 -27.50024414 17.08691406 C-27.61303163 14.07476607 -27.58121227 11.75456207 -26.70068359 8.86767578 C-24.02262918 6.1001315 -21.1275803 4.57593187 -17.70068359 2.86767578 C-16.91177734 2.37138672 -16.12287109 1.87509766 -15.31005859 1.36376953 C-9.62570259 -2.18411933 -6.41797747 -2.69088587 0 0 Z M-12.37255859 2.83642578 C-13.03642578 3.24248047 -13.70029297 3.64853516 -14.38427734 4.06689453 C-15.40714844 4.71078125 -15.40714844 4.71078125 -16.45068359 5.36767578 C-17.14806641 5.79693359 -17.84544922 6.22619141 -18.56396484 6.66845703 C-20.28109882 7.72696428 -21.991559 8.79628425 -23.70068359 9.86767578 C-19.63737278 13.31317325 -15.3613785 16.02884892 -10.76318359 18.68017578 C-10.07289062 19.09976562 -9.38259766 19.51935547 -8.67138672 19.95166016 C-5.45371637 21.80296433 -3.38902734 22.86417721 0.37353516 22.88330078 C3.95759507 21.63916784 7.01993108 19.8712268 10.17431641 17.80517578 C10.76728516 17.428125 11.36025391 17.05107422 11.97119141 16.66259766 C13.41958963 15.73982782 14.86027671 14.80497315 16.29931641 13.86767578 C12.21456743 10.38244965 7.89499491 7.73923545 3.23681641 5.11767578 C2.52976562 4.70646484 1.82271484 4.29525391 1.09423828 3.87158203 C0.4078125 3.48357422 -0.27861328 3.09556641 -0.98583984 2.69580078 C-1.9121521 2.16841309 -1.9121521 2.16841309 -2.85717773 1.63037109 C-6.58543985 0.08791435 -9.15455789 0.83904604 -12.37255859 2.83642578 Z M-24.70068359 11.86767578 C-25.0997969 14.7233563 -25.0997969 14.7233563 -24.70068359 17.86767578 C-22.70887901 19.88061557 -22.70887901 19.88061557 -19.92333984 21.29736328 C-18.93527344 21.86455078 -17.94720703 22.43173828 -16.92919922 23.01611328 C-15.88441406 23.58587891 -14.83962891 24.15564453 -13.76318359 24.74267578 C-12.72226563 25.33564453 -11.68134766 25.92861328 -10.60888672 26.53955078 C-6.38221081 29.39957455 -6.38221081 29.39957455 -1.70068359 30.86767578 C-1.11473169 28.06446955 -1.11473169 28.06446955 -1.70068359 24.86767578 C-4.06942174 22.96158181 -6.05779292 21.64592265 -8.70068359 20.24267578 C-9.38461182 19.85732666 -10.06854004 19.47197754 -10.77319336 19.07495117 C-12.73575194 17.97868641 -14.71226954 16.9161695 -16.70068359 15.86767578 C-17.61720703 15.38427734 -18.53373047 14.90087891 -19.47802734 14.40283203 C-21.2032238 13.52619513 -22.94891677 12.68993368 -24.70068359 11.86767578 Z " fill="#000000" transform="translate(28.70068359375,9.13232421875)"/>
<path d="M0 0 C0 0.66 0 1.32 0 2 C-1.40751221 2.86916887 -2.8264521 3.71985149 -4.25 4.5625 C-5.03890625 5.03816406 -5.8278125 5.51382812 -6.640625 6.00390625 C-9.30844625 7.13022151 -10.34501768 7.0169313 -13 6 C-11.78477565 2.35432696 -10.15416646 1.51432978 -6.85546875 -0.28125 C-4.29350521 -1.27367377 -2.54294225 -0.92470627 0 0 Z " fill="#000000" transform="translate(26,15)"/>
</svg>
