<?xml version="1.0" encoding="UTF-8"?>
<svg version="1.1" xmlns="http://www.w3.org/2000/svg" width="48" height="48">
<path d="M0 0 C-0.33 1.32 -0.66 2.64 -1 4 C-2.21236328 4.12955078 -2.21236328 4.12955078 -3.44921875 4.26171875 C-10.25019239 5.0957197 -10.25019239 5.0957197 -16.125 8.375 C-16.74375 9.24125 -17.3625 10.1075 -18 11 C-18.6496875 11.8971875 -18.6496875 11.8971875 -19.3125 12.8125 C-20.38510065 16.22532024 -20.11885992 19.43420254 -20 23 C-18.4221875 23.061875 -18.4221875 23.061875 -16.8125 23.125 C-13 24 -13 24 -10.0625 26.6875 C-7.85151533 30.23847537 -7.51334804 31.91212349 -8 36 C-6.02 36 -4.04 36 -2 36 C-2.103125 35.13375 -2.20625 34.2675 -2.3125 33.375 C-1.87637767 28.66487885 -0.36210366 27.28569222 3 24 C5.3125 23.125 5.3125 23.125 7 23 C7.8125 24.6875 7.8125 24.6875 8 27 C5.5625 29.75 5.5625 29.75 3 32 C3.495 32.495 3.495 32.495 4 33 C6.99647134 32.3262405 6.99647134 32.3262405 8.125 30.4375 C9.36492259 26.98342993 9.63491457 23.65085434 10 20 C0.44935004 15.94820911 -8.91071621 16.44780249 -19 18 C-19 16.68 -19 15.36 -19 14 C-10.2557519 10.66885787 0.2557519 10.66885787 9 14 C8.22520264 11.00847418 8.22520264 11.00847418 7 8 C6.01 7.67 5.02 7.34 4 7 C4 5.68 4 4.36 4 3 C6.1875 3.0625 6.1875 3.0625 9 4 C14.52188073 9.95017065 15.4773027 15.66212198 15.40625 23.62890625 C14.59126267 30.39173379 11.01203873 34.31645739 5.9375 38.5625 C0.78044494 41.08911087 -5.43004307 40.60634974 -11 40 C-13.8984375 38.9765625 -13.8984375 38.9765625 -16 38 C-16 36.68 -16 35.36 -16 34 C-14.68 34 -13.36 34 -12 34 C-14.58110689 29.41455183 -14.58110689 29.41455183 -19 27 C-18.34 27.99 -17.68 28.98 -17 30 C-17 31.32 -17 32.64 -17 34 C-18.32 34 -19.64 34 -21 34 C-25.27488894 28.38920826 -25.72734471 23.44238016 -25.51171875 16.453125 C-24.61201018 10.38180917 -21.86476609 6.67523958 -17.46484375 2.56640625 C-12.26238643 -1.12772192 -6.10271481 -0.36075161 0 0 Z " fill="#000000" transform="translate(29,4)"/>
<path d="M0 0 C1.32278481 5.41139241 1.32278481 5.41139241 -0.0625 7.9375 C-2.91093248 9.49954362 -4.93504903 8.74921024 -8 8 C-9.32278481 2.58860759 -9.32278481 2.58860759 -7.9375 0.0625 C-5.08906752 -1.49954362 -3.06495097 -0.74921024 0 0 Z M-5 3 C-5 3.66 -5 4.32 -5 5 C-4.34 5 -3.68 5 -3 5 C-3 4.34 -3 3.68 -3 3 C-3.66 3 -4.32 3 -5 3 Z " fill="#000000" transform="translate(28,23)"/>
</svg>
