<?xml version="1.0" encoding="UTF-8"?>
<svg version="1.1" xmlns="http://www.w3.org/2000/svg" width="50" height="50">
<path d="M0 0 C2.18359375 0.0625 2.18359375 0.0625 5 1 C6.92025764 3.3196949 8.48374611 5.46664367 10.0625 8 C10.49933105 8.68553955 10.93616211 9.3710791 11.38623047 10.07739258 C12.61634847 12.03738676 13.81540433 14.01223467 15 16 C15.50660156 16.84949219 16.01320313 17.69898437 16.53515625 18.57421875 C19.56715787 24.45347637 19.91888074 30.49358181 19 37 C16.58064724 42.01791684 13.0008269 45.49958655 8 48 C2.44468752 48.5072965 -2.41830236 48.76260422 -7.5 46.3125 C-12.365717 41.81171178 -15.14438305 38.40003694 -15.5 31.75 C-15.38346051 19.58619023 -7.23975205 9.21422988 0 0 Z M-9 31 C-9 32.65 -9 34.3 -9 36 C-8.67 36 -8.34 36 -8 36 C-8 34.35 -8 32.7 -8 31 C-8.33 31 -8.66 31 -9 31 Z " fill="#000000" transform="translate(23,1)"/>
</svg>
