<?xml version="1.0" encoding="UTF-8"?>
<svg version="1.1" xmlns="http://www.w3.org/2000/svg" width="60" height="60">
<path d="M0 0 C0.93328125 -0.01160156 1.8665625 -0.02320312 2.828125 -0.03515625 C8.89653206 -0.00972996 14.54193339 0.53303602 20 3.375 C24.39761183 8.53656222 24.48142924 16.11561779 24.62890625 22.61328125 C23.73383326 26.54381916 22.15080453 27.88682092 19 30.375 C16.11914652 31.09393676 13.33310829 31.07697439 10.375 31.0390625 C9.1382251 31.04623795 9.1382251 31.04623795 7.87646484 31.05355835 C6.13832687 31.05695122 4.40012456 31.04779153 2.66210938 31.02685547 C0.00766175 31.00007729 -2.64255825 31.02661996 -5.296875 31.05859375 C-6.98959263 31.05528954 -8.68230763 31.04888306 -10.375 31.0390625 C-11.16471191 31.04918365 -11.95442383 31.05930481 -12.76806641 31.06973267 C-16.98842317 30.98036188 -18.56755092 30.71650349 -21.99975586 28.00610352 C-25.48707548 23.41891401 -24.71010849 18.87834079 -24 13.375 C-23.22807231 9.60677402 -22.51442289 6.32622687 -20 3.375 C-13.65338635 0.07037793 -7.00665718 -0.08709933 0 0 Z " fill="#000000" transform="translate(30,23.625)"/>
<path d="M0 0 C3 0.125 3 0.125 4 1.125 C4.04092937 3.45797433 4.04241723 5.79205225 4 8.125 C5.32 7.795 6.64 7.465 8 7.125 C7.979375 6.155625 7.95875 5.18625 7.9375 4.1875 C8 1.125 8 1.125 9 0.125 C12 0 12 0 15 0.125 C16 1.125 16 1.125 16.1875 4 C16 7.125 16 7.125 14 10.125 C14.61488281 10.18558594 15.22976562 10.24617188 15.86328125 10.30859375 C16.67152344 10.39238281 17.47976562 10.47617187 18.3125 10.5625 C19.11300781 10.64371094 19.91351563 10.72492187 20.73828125 10.80859375 C23 11.125 23 11.125 26 12.125 C25.67 13.775 25.34 15.425 25 17.125 C23.76507813 16.95742188 22.53015625 16.78984375 21.2578125 16.6171875 C9.45195922 15.15142304 -1.25523595 15.28101531 -13 17.125 C-13.33 15.475 -13.66 13.825 -14 12.125 C-12.7625 11.795 -11.525 11.465 -10.25 11.125 C-9.20585937 10.8465625 -9.20585937 10.8465625 -8.140625 10.5625 C-6 10.125 -6 10.125 -2 10.125 C-2.66 9.135 -3.32 8.145 -4 7.125 C-4.1875 4 -4.1875 4 -4 1.125 C-3 0.125 -3 0.125 0 0 Z " fill="#000000" transform="translate(24,5.875)"/>
</svg>
