<?xml version="1.0" encoding="UTF-8"?>
<svg version="1.1" xmlns="http://www.w3.org/2000/svg" width="60" height="60">
<path d="M0 0 C5.82485779 3.51996782 10.54466582 8.98962934 12.5625 15.5 C13.36764105 23.33608208 13.68710392 31.11922577 8.5625 37.5 C3.75801361 42.54521222 -0.59927055 46.10562995 -7.70703125 46.8359375 C-16.22326573 46.92983204 -22.11345494 46.6177288 -28.40234375 40.62890625 C-34.7841668 33.72505269 -35.91792252 28.29832071 -35.7421875 18.9453125 C-35.04689797 11.08319245 -31.38995981 6.95041296 -25.53515625 1.9453125 C-18.47077988 -2.92213491 -7.84396301 -3.47595223 0 0 Z M-12.4375 3.5 C-13.85524838 4.68852855 -13.85524838 4.68852855 -13.53515625 8.09765625 C-13.5284822 9.58596867 -13.51652183 11.07426432 -13.5 12.5625 C-13.49548828 13.32111328 -13.49097656 14.07972656 -13.48632812 14.86132812 C-13.4745068 16.74091871 -13.45657078 18.62046899 -13.4375 20.5 C-17.3975 20.5 -21.3575 20.5 -25.4375 20.5 C-25.4375 21.82 -25.4375 23.14 -25.4375 24.5 C-20.1575 24.5 -14.8775 24.5 -9.4375 24.5 C-9.4375 17.9 -9.4375 11.3 -9.4375 4.5 C-10.4275 4.17 -11.4175 3.84 -12.4375 3.5 Z " fill="#000000" transform="translate(41.4375,7.5)"/>
</svg>
